<?xml version="1.0" standalone="no"?>
<!DOCTYPE svg PUBLIC "-//W3C//DTD SVG 20010904//EN"
 "http://www.w3.org/TR/2001/REC-SVG-20010904/DTD/svg10.dtd">
<svg version="1.0" xmlns="http://www.w3.org/2000/svg"
 width="700.000000pt" height="700.000000pt" viewBox="0 0 700.000000 700.000000"
 preserveAspectRatio="xMidYMid meet">
<metadata>
Created by potrace 1.11, written by Peter Selinger 2001-2013
</metadata>
<g transform="translate(0.000000,700.000000) scale(0.100000,-0.100000)"
fill="#000000" stroke="none">
<path d="M3265 6994 c-281 -28 -419 -50 -615 -100 -629 -158 -1197 -485 -1650
-950 -557 -572 -880 -1255 -982 -2074 -17 -139 -17 -611 0 -750 59 -477 188
-892 398 -1282 545 -1011 1529 -1682 2674 -1824 160 -20 674 -19 838 1 1603
199 2858 1454 3057 3057 20 164 21 678 1 838 -77 616 -300 1178 -661 1666
-579 781 -1415 1269 -2400 1400 -105 14 -573 27 -660 18z m-1124 -1929 c112
-14 242 -108 295 -212 l29 -58 0 -1315 0 -1315 -29 -58 c-69 -136 -211 -217
-382 -217 -157 0 -283 62 -361 177 -25 38 -46 84 -52 115 -8 37 -11 434 -9
1329 l3 1275 34 68 c64 124 190 205 341 219 36 3 50 2 131 -8z m2954 -9 c120
-32 216 -109 268 -215 l32 -66 0 -1290 0 -1290 -23 -57 c-128 -317 -626 -331
-778 -22 l-29 59 0 1305 0 1305 28 60 c47 100 144 177 265 210 62 17 175 18
237 1z m-1493 -287 c169 -36 293 -158 318 -315 13 -79 13 -2458 0 -2538 -27
-166 -158 -286 -346 -317 -136 -22 -289 25 -382 118 -57 57 -89 120 -102 199
-13 80 -13 2459 0 2538 36 222 270 366 512 315z"/>
</g>
</svg>
