<!-- Generated by IcoMoon.io -->
<svg version="1.1" xmlns="http://www.w3.org/2000/svg" width="28" height="28" viewBox="0 0 28 28">
<title>git</title>
<path d="M9.297 23.656c0-1.375-1.516-1.563-2.578-1.563-1.109 0-2.469 0.234-2.469 1.625 0 1.406 1.609 1.578 2.688 1.578 1.141 0 2.359-0.281 2.359-1.641zM8.375 11.859c0-1.172-0.562-2.234-1.859-2.234-1.437 0-1.937 0.953-1.937 2.266 0 1.297 0.562 2.109 1.937 2.109 1.359 0 1.859-0.875 1.859-2.141zM12.578 6.797v3.156c-0.406 0.141-0.812 0.25-1.234 0.344 0.156 0.422 0.25 0.859 0.25 1.313 0 2.641-1.625 4.656-4.219 5.141-0.781 0.156-1.234 0.484-1.234 1.328 0 2.391 6.312 0.766 6.312 5.172 0 3.578-2.422 4.75-5.672 4.75-2.672 0-5.719-0.891-5.719-4.109 0-1.875 1.141-2.953 2.844-3.516v-0.063c-0.719-0.438-1.047-1.125-1.047-1.969 0-0.797 0.172-1.781 0.984-2.141v-0.063c-1.578-0.531-2.609-2.703-2.609-4.281 0-2.922 2.266-5.063 5.156-5.063 0.969 0 1.937 0.25 2.781 0.734 1.172 0 2.328-0.313 3.406-0.734zM17.547 20.563h-3.469c0.063-0.703 0.063-1.391 0.063-2.094v-9.516c0-0.672 0.016-1.344-0.063-2h3.469c-0.078 0.641-0.063 1.297-0.063 1.937v9.578c0 0.703 0 1.391 0.063 2.094zM26.938 17.094v3.063c-0.828 0.453-1.781 0.609-2.719 0.609-3.344 0-3.734-2.641-3.734-5.359v-5.484h0.031v-0.063c-0.203 0-0.391-0.031-0.578-0.031-0.313 0-0.625 0.047-0.922 0.094v-2.969h1.5v-1.188c0-0.469-0.016-0.938-0.094-1.391h3.547c-0.125 0.859-0.094 1.719-0.094 2.578h2.672v2.969c-0.453 0-0.906-0.063-1.344-0.063h-1.328v5.703c0 0.922 0.203 2.047 1.359 2.047 0.609 0 1.203-0.172 1.703-0.516zM17.938 2.297c0 1.172-0.906 2.266-2.109 2.266-1.234 0-2.156-1.078-2.156-2.266 0-1.203 0.906-2.297 2.156-2.297 1.234 0 2.109 1.125 2.109 2.297z"></path>
</svg>
