<!-- Generated by IcoMoon.io -->
<svg version="1.1" xmlns="http://www.w3.org/2000/svg" width="24" height="28" viewBox="0 0 24 28">
<title>trello</title>
<path d="M11 21v-16c0-0.281-0.219-0.5-0.5-0.5h-7.5c-0.281 0-0.5 0.219-0.5 0.5v16c0 0.281 0.219 0.5 0.5 0.5h7.5c0.281 0 0.5-0.219 0.5-0.5zM21.5 15v-10c0-0.281-0.219-0.5-0.5-0.5h-7.5c-0.281 0-0.5 0.219-0.5 0.5v10c0 0.281 0.219 0.5 0.5 0.5h7.5c0.281 0 0.5-0.219 0.5-0.5zM24 3v22c0 0.547-0.453 1-1 1h-22c-0.547 0-1-0.453-1-1v-22c0-0.547 0.453-1 1-1h22c0.547 0 1 0.453 1 1z"></path>
</svg>
