<!-- Generated by IcoMoon.io -->
<svg version="1.1" xmlns="http://www.w3.org/2000/svg" width="24" height="24" viewBox="0 0 24 24">
<title>vector</title>
<path d="M21 18v3h-3v-0.75h-4.5v0.75h-3v-0.75h-4.5v0.75h-3v-3h0.75v-4.5h-0.75v-3h0.75v-4.5h-0.75v-3h3v0.75h4.5v-0.75h3v0.75h4.5v-0.75h3v3h-0.75v4.5h0.75v3h-0.75v4.5h0.75zM11.25 20.25h1.5v-1.5h-1.5v1.5zM3.75 20.25h1.5v-1.5h-1.5v1.5zM3.75 12.75h1.5v-1.5h-1.5v1.5zM5.25 3.75h-1.5v1.5h1.5v-1.5zM12.75 3.75h-1.5v1.5h1.5v-1.5zM18 5.25h-4.5v0.75h-3v-0.75h-4.5v0.75h-0.75v4.5h0.75v3h-0.75v4.5h0.75v0.75h4.5v-0.75h3v0.75h4.5v-0.75h0.75v-4.5h-0.75v-3h0.75v-4.5h-0.75v-0.75zM20.25 3.75h-1.5v1.5h1.5v-1.5zM20.25 11.25h-1.5v1.5h1.5v-1.5zM18.75 18.75v1.5h1.5v-1.5h-1.5z"></path>
</svg>
