<?xml version="1.0" encoding="utf-8"?>
<!-- Generated by IcoMoon.io -->
<!DOCTYPE svg PUBLIC "-//W3C//DTD SVG 1.1//EN" "http://www.w3.org/Graphics/SVG/1.1/DTD/svg11.dtd">
<svg version="1.1" xmlns="http://www.w3.org/2000/svg" xmlns:xlink="http://www.w3.org/1999/xlink" width="27" height="32" viewBox="0 0 27 32">
<path d="M12.571 24v-18.286q0-0.25-0.161-0.411t-0.411-0.161h-8.571q-0.25 0-0.411 0.161t-0.161 0.411v18.286q0 0.25 0.161 0.411t0.411 0.161h8.571q0.25 0 0.411-0.161t0.161-0.411zM24.571 17.143v-11.429q0-0.25-0.161-0.411t-0.411-0.161h-8.571q-0.25 0-0.411 0.161t-0.161 0.411v11.429q0 0.25 0.161 0.411t0.411 0.161h8.571q0.25 0 0.411-0.161t0.161-0.411zM27.429 3.429v25.143q0 0.464-0.339 0.804t-0.804 0.339h-25.143q-0.464 0-0.804-0.339t-0.339-0.804v-25.143q0-0.464 0.339-0.804t0.804-0.339h25.143q0.464 0 0.804 0.339t0.339 0.804z"></path>
</svg>
