<svg xmlns="http://www.w3.org/2000/svg" style="position:absolute; width: 0; height: 0"><symbol viewBox="0 0 32 32" id="icon-codepen"><path d="M15.968.96C7.68.96.96 7.68.96 15.968s6.72 15.008 15.008 15.008 15.008-6.72 15.008-15.008S24.262.96 15.968.96zm0 27.558c-6.918 0-12.544-5.626-12.544-12.544S9.05 3.43 15.968 3.43s12.544 5.626 12.544 12.544-5.626 12.544-12.544 12.544z"></path><path d="M25.248 13.037c0-.013-.006-.026-.006-.032-.006-.026-.006-.045-.013-.064-.006-.013-.006-.026-.013-.038l-.019-.058-.019-.038c-.006-.019-.019-.038-.026-.051s-.013-.026-.026-.038l-.032-.051a.11.11 0 0 0-.026-.032c-.013-.013-.026-.032-.038-.045l-.032-.032c-.013-.013-.032-.026-.045-.038-.013-.006-.026-.019-.038-.026-.006 0-.006-.006-.013-.013l-8.486-5.658a.793.793 0 0 0-.883 0l-8.486 5.658c-.006 0-.006.006-.013.013-.013.006-.026.019-.038.026-.013.013-.032.026-.045.038l-.032.032c-.013.013-.026.026-.038.045a.11.11 0 0 1-.026.032.134.134 0 0 0-.032.051.112.112 0 0 1-.026.038.205.205 0 0 0-.026.051l-.019.038-.019.058c-.006.013-.006.026-.013.038a.243.243 0 0 0-.013.064c0 .013-.006.026-.006.032-.006.032-.006.07-.006.102v5.658c0 .032 0 .07.006.102 0 .013.006.026.006.032.006.026.006.045.013.064.006.013.006.026.013.038l.019.058.019.038c.006.019.019.038.026.051s.013.026.026.038l.032.051a.11.11 0 0 0 .026.032c.013.013.026.032.038.045l.032.032c.013.013.032.026.045.038.013.006.026.019.038.026.006 0 .006.006.013.013l8.486 5.658a.79.79 0 0 0 .884 0l8.48-5.651c.006 0 .006-.006.013-.013.013-.006.026-.019.038-.026.013-.013.032-.026.045-.038l.032-.032c.013-.013.026-.026.038-.045a.11.11 0 0 1 .026-.032.134.134 0 0 0 .032-.051.112.112 0 0 1 .026-.038.205.205 0 0 0 .026-.051l.019-.038.019-.058c.006-.013.006-.026.013-.038a.243.243 0 0 0 .013-.064c0-.013.006-.026.006-.032.006-.032.006-.07.006-.102v-5.658c.006-.038 0-.07 0-.109zm-8.48-4.058l6.253 4.166-2.797 1.869-3.456-2.31V8.979zm-1.594 0v3.718l-3.456 2.31-2.79-1.869 6.246-4.16zm-6.886 5.658l1.997 1.338-1.997 1.338v-2.675zm6.886 8.326l-6.253-4.166 2.79-1.869 3.456 2.31v3.725zm.794-5.107l-2.822-1.888 2.822-1.888 2.822 1.888-2.822 1.888zm.8 5.107v-3.718l3.456-2.31 2.79 1.869-6.246 4.16zm6.886-5.657l-1.997-1.338 1.997-1.338v2.675z"></path></symbol><symbol viewBox="0 0 32 32" id="icon-github"><path d="M16 0C7.163 0 0 7.163 0 16s7.163 16 16 16 16-7.163 16-16S24.837 0 16 0zm9.502 25.502a13.4 13.4 0 0 1-5.51 3.334v-2.398c0-1.26-.432-2.188-1.297-2.781.542-.052 1.039-.125 1.492-.219s.932-.229 1.438-.406.958-.388 1.359-.633.786-.563 1.156-.953.68-.833.93-1.328.448-1.089.594-1.781.219-1.456.219-2.289c0-1.615-.526-2.99-1.578-4.125.479-1.25.427-2.609-.156-4.078l-.391-.047c-.271-.031-.758.083-1.461.344s-1.492.688-2.367 1.281a14.367 14.367 0 0 0-3.859-.516c-1.344 0-2.625.172-3.844.516-.552-.375-1.075-.685-1.57-.93s-.891-.411-1.188-.5-.573-.143-.828-.164-.419-.026-.492-.016-.125.021-.156.031c-.583 1.479-.635 2.839-.156 4.078-1.052 1.135-1.578 2.51-1.578 4.125 0 .833.073 1.596.219 2.289s.344 1.286.594 1.781.56.938.93 1.328.755.708 1.156.953.854.456 1.359.633.984.313 1.438.406.95.167 1.492.219c-.854.583-1.281 1.51-1.281 2.781v2.445A13.4 13.4 0 0 1 6.5 25.501a13.4 13.4 0 0 1-3.936-9.502A13.4 13.4 0 0 1 6.5 6.497a13.4 13.4 0 0 1 9.502-3.936 13.4 13.4 0 0 1 9.502 3.936 13.4 13.4 0 0 1 3.936 9.502 13.4 13.4 0 0 1-3.936 9.502z"></path></symbol><symbol viewBox="0 0 32 32" id="icon-twitter"><path d="M32 6.076a13.14 13.14 0 0 1-3.771 1.034 6.592 6.592 0 0 0 2.887-3.632 13.151 13.151 0 0 1-4.169 1.593 6.557 6.557 0 0 0-4.792-2.073 6.565 6.565 0 0 0-6.565 6.565c0 .515.058 1.016.17 1.496a18.64 18.64 0 0 1-13.532-6.86A6.536 6.536 0 0 0 1.339 7.5a6.563 6.563 0 0 0 2.921 5.465 6.54 6.54 0 0 1-2.974-.821l-.001.083a6.568 6.568 0 0 0 5.266 6.437 6.578 6.578 0 0 1-2.965.112 6.571 6.571 0 0 0 6.133 4.559 13.172 13.172 0 0 1-8.154 2.81c-.53 0-1.052-.031-1.566-.092a18.579 18.579 0 0 0 10.064 2.95c12.076 0 18.679-10.004 18.679-18.68 0-.285-.006-.568-.019-.849a13.347 13.347 0 0 0 3.276-3.398z"></path></symbol></svg>